<svg version="1.1" xmlns="http://www.w3.org/2000/svg" viewBox="0 0 1791 2032" width="1791" height="2032">
  <!-- svg-source:excalidraw -->
  
  <defs>
    <style>
      @font-face {
        font-family: "Virgil";
        src: url("https://excalidraw.com/Virgil.woff2");
      }
      @font-face {
        font-family: "Cascadia";
        src: url("https://excalidraw.com/Cascadia.woff2");
      }
    </style>
  </defs>
  <rect x="0" y="0" width="1791" height="2032" fill="#ffffff"></rect><g stroke-linecap="round" transform="translate(10 10) rotate(0 885.5 1006)"><path d="M0.67 -0.32 C593.8 1.97, 1185.99 1.84, 1770.27 0.36 M-0.18 0.02 C415.3 -4.06, 831.39 -4.17, 1771.38 -0.25 M1770.36 -0.39 C1771.95 614.34, 1771.15 1226.93, 1770.91 2012.06 M1771.4 -0.33 C1772.09 761.61, 1771.89 1524.01, 1770.8 2012.22 M1771.39 2012.25 C1271.26 2011.03, 772.29 2011.22, -0.01 2012.73 M1770.9 2011.7 C1120.02 2017.61, 468.27 2017.06, 0.25 2012.17 M-0.23 2012.03 C-7.15 1208.91, -6.62 406.29, 0.43 -0.2 M-0.07 2012.25 C5.97 1499.66, 5.71 987.37, -0.22 0.28" stroke="#000000" stroke-width="1" fill="none"></path></g><g transform="translate(200.39682539682542 50.476190476190595) rotate(0 31.947931526390903 16.993580599144025)"><text x="0" y="23.987161198288156" font-family="Virgil, Segoe UI Emoji" font-size="27.189728958630557px" fill="#000000" text-anchor="start" style="white-space: pre;" direction="ltr">Body</text></g><g stroke-linecap="round" transform="translate(252.84126984126988 1844.4761904761906) rotate(0 359.5 48.5)"><path d="M-0.17 0.1 C152.94 -1.45, 305.46 -1.66, 719.77 -0.54 M0.39 -0.36 C247.3 2.13, 494.94 2.09, 719.3 0.12 M717.88 -0.42 C719.29 38.75, 716.79 75.71, 718.7 97.32 M719.05 0.22 C718.22 34.1, 718.86 66.03, 718.06 97.13 M719.02 97.62 C459.53 96.19, 198.47 96.99, -0.43 97.08 M719.02 96.7 C567.82 96.82, 417.4 96.81, 0.26 97.02 M-0.22 97.82 C2.17 70.84, -0.13 40.8, -1.88 1.93 M-0.82 96.76 C-0.16 58.01, 0.1 19.2, 0.36 0.36" stroke="#000000" stroke-width="1" fill="none"></path></g><g transform="translate(288.3968253968253 1863.8095238095239) rotate(0 32.5 12.5)"><text x="0" y="18" font-family="Virgil, Segoe UI Emoji" font-size="20px" fill="#000000" text-anchor="start" style="white-space: pre;" direction="ltr">Footer</text></g><g stroke-linecap="round"><g transform="translate(338.3968253968254 1914.8095238095239) rotate(0 291.5539234415535 1.5284472284372903)"><path d="M0.61 0.41 C97.8 0.96, 486.33 2.89, 583.64 3.48 M-0.53 -0.42 C96.43 -0.26, 485.08 1.2, 582.51 1.61" stroke="#000000" stroke-width="1" fill="none"></path></g><g transform="translate(338.3968253968254 1914.8095238095239) rotate(0 291.5539234415535 1.5284472284372903)"><path d="M554.96 11.16 C564.66 9.01, 575.01 3.87, 580.74 3.36 M553.45 12.68 C564.3 7.24, 574.39 3.67, 582.56 1.41" stroke="#000000" stroke-width="1" fill="none"></path></g><g transform="translate(338.3968253968254 1914.8095238095239) rotate(0 291.5539234415535 1.5284472284372903)"><path d="M555.04 -9.36 C564.75 -4.53, 575.07 -2.68, 580.74 3.36 M553.53 -7.84 C564.36 -5.97, 574.43 -2.22, 582.56 1.41" stroke="#000000" stroke-width="1" fill="none"></path></g></g><g stroke-linecap="round" transform="translate(338.97159380131325 1347.7628306878307) rotate(0 376.93333333333317 72.28124999999997)"><path d="M-0.2 0.73 C151.83 -1.43, 304.04 -0.48, 754.35 -0.56 M-0.12 -0.14 C296.31 2.79, 591.93 2.88, 753.98 0.3 M753.52 0.83 C756.33 43.66, 754.56 89.45, 753.9 144.19 M754.38 0.14 C752.91 35.86, 752.41 72.21, 754.3 145.42 M753.21 143.84 C575.11 142.85, 394.85 142.44, -0.56 143.98 M754.16 144.41 C585.44 145.51, 417.38 145.83, 0.06 144.67 M-0.79 146.53 C-0.86 89.02, 0.96 31.49, 0.13 -0.45 M0.89 144.47 C-0.2 99.11, -1.84 56.01, -0.71 0.38" stroke="#000000" stroke-width="1" fill="none"></path></g><g transform="translate(402.5077049124251 1361.972619047619) rotate(0 32.125 13.385416666666686)"><text x="0" y="18.770833333333346" font-family="Virgil, Segoe UI Emoji" font-size="21.41666666666666px" fill="#000000" text-anchor="start" style="white-space: pre;" direction="ltr">Quote</text></g><g stroke-linecap="round" transform="translate(238.39818110289957 233.76190476190482) rotate(0 722.1578196839077 781)"><path d="M-0.14 0.25 C437.76 2.65, 876.7 3.04, 1443.79 0.26 M-0.11 -0.16 C530.24 -2.61, 1061.27 -2.77, 1443.99 0.27 M1444.57 0.76 C1438.01 463.32, 1438.77 927.04, 1444.36 1562.23 M1444.02 0.3 C1443.83 544.32, 1444.41 1089.16, 1444.04 1561.73 M1443.62 1561.8 C879.92 1565.52, 316.38 1566.03, 0.3 1562 M1444.43 1562.13 C1063.52 1558.82, 683.62 1559.48, -0.03 1562.21 M-0.06 1561.51 C3.72 1232.25, 4.2 903.3, -0.33 0.69 M-0.34 1561.7 C3.53 1100.66, 3.51 639.92, -0.2 0.01" stroke="#000000" stroke-width="1" fill="none"></path></g><g transform="translate(276.09556616037105 271.9154536124802) rotate(0 48.264119971264336 15.67016882183907)"><text x="0" y="22.340337643678165" font-family="Virgil, Segoe UI Emoji" font-size="25.072270114942487px" fill="#000000" text-anchor="start" style="white-space: pre;" direction="ltr">Content</text></g><g stroke-linecap="round"><g transform="translate(270.18423449452007 296.26144490793354) rotate(0 5.062189005438995 688.70301190614)"><path d="M-1.07 1 C0.6 230.2, 9.12 1146.54, 11.19 1375.7 M0.57 0.47 C1.96 229.79, 8.51 1147.49, 10.18 1376.93" stroke="#000000" stroke-width="1" fill="none"></path></g><g transform="translate(270.18423449452007 296.26144490793354) rotate(0 5.062189005438995 688.70301190614)"><path d="M1.38 1348.62 C3.04 1360.21, 7.65 1371.24, 9.22 1374.98 M-0.51 1349.51 C2.99 1357.82, 6.7 1365.89, 9.55 1376.46" stroke="#000000" stroke-width="1" fill="none"></path></g><g transform="translate(270.18423449452007 296.26144490793354) rotate(0 5.062189005438995 688.70301190614)"><path d="M21.9 1348.47 C15.36 1359.94, 11.77 1371.03, 9.22 1374.98 M20.01 1349.36 C17.49 1357.79, 15.17 1365.9, 9.55 1376.46" stroke="#000000" stroke-width="1" fill="none"></path></g></g><g stroke-linecap="round" transform="translate(437.84520491242506 780.5101190476194) rotate(0 331.42291666666654 35.8729166666667)"><path d="M-0.25 -0.36 C163.28 -2.8, 326.06 -2.43, 662.34 -0.33 M0.11 -0.05 C229.29 0.46, 459.46 0.73, 663.21 0.33 M664.15 1.39 C662.28 18.96, 663.07 40.62, 661.2 73.36 M661.92 -0.19 C662.5 20.59, 663.94 40.74, 662.03 72.05 M662.49 71.11 C408.65 71.99, 154.18 72.19, -0.57 72.13 M662.83 71.95 C473.63 70.21, 283.82 69.6, -0.02 72.07 M-1.75 73.55 C2.3 56.67, 1.41 40.84, 0.13 0.39 M0.4 71.16 C0.73 47.41, 0.56 22.78, 0.53 -0.79" stroke="#000000" stroke-width="1" fill="none"></path></g><g transform="translate(480.6785382457581 809.4226190476202) rotate(0 88.34375 13.385416666666629)"><text x="0" y="18.770833333333346" font-family="Virgil, Segoe UI Emoji" font-size="21.41666666666666px" fill="#000000" text-anchor="start" style="white-space: pre;" direction="ltr">Showcase-header</text></g><g stroke-linecap="round"><g transform="translate(731.3426288984119 824.5315077962432) rotate(0 113.43094984220966 0.5029666451902131)"><path d="M-0.34 -0.63 C37.23 -0.71, 187.11 -0.54, 224.99 -0.49 M1.68 1.65 C39.65 1.74, 189.7 0.93, 227.2 0.79" stroke="#000000" stroke-width="1" fill="none"></path></g><g transform="translate(731.3426288984119 824.5315077962432) rotate(0 113.43094984220966 0.5029666451902131)"><path d="M198.01 9.59 C205.72 10.18, 213.44 4.34, 228.76 1.66 M199.45 10.56 C206.16 8.14, 214.1 5.58, 226.7 1.68" stroke="#000000" stroke-width="1" fill="none"></path></g><g transform="translate(731.3426288984119 824.5315077962432) rotate(0 113.43094984220966 0.5029666451902131)"><path d="M197.92 -10.93 C205.65 -4.89, 213.39 -5.28, 228.76 1.66 M199.35 -9.97 C205.98 -7.09, 213.95 -4.36, 226.7 1.68" stroke="#000000" stroke-width="1" fill="none"></path></g></g><g stroke-linecap="round" transform="translate(335.0452049124258 694.8434523809519) rotate(0 602.3437499999998 313.4733478146392)"><path d="M-0.62 -0.14 C291.3 -1.27, 581.69 -1.02, 1204.9 0.18 M0.19 -0.22 C442.98 -4.6, 886.81 -4.47, 1204.56 -0.28 M1204.9 -0.49 C1205.5 191.85, 1206.01 384.84, 1204.81 627.42 M1204.41 0.13 C1205.73 160.36, 1206.01 320.18, 1205.08 626.67 M1204.54 626.37 C947.38 628.68, 691.8 627.55, -0.73 626.23 M1205.05 626.93 C924.69 626.98, 644.63 626.42, 0.2 627.28 M-0.79 626.5 C1.46 421.93, 1.7 217.59, -0.02 -0.58 M-0.16 626.6 C0.72 470.29, 1.07 313.11, -0.22 -0.17" stroke="#000000" stroke-width="1" fill="none"></path></g><g transform="translate(364.83737842479877 713.2726124652054) rotate(0 68.27366047919963 18.75650013164818)"><text x="0" y="26.51300026329647" font-family="Virgil, Segoe UI Emoji" font-size="30.010400210637176px" fill="#000000" text-anchor="start" style="white-space: pre;" direction="ltr">Showcase</text></g><g stroke-linecap="round" transform="translate(480.9238318213229 1004.3751861882181) rotate(0 88.53068062137964 108.78770076355977)"><path d="M1.96 -1.38 C55.57 1, 111.94 1.09, 177.16 0.6 M-0.99 -0.26 C36.21 -0.03, 71.33 -0.23, 176.16 0.11 M177.43 -0.5 C176.31 76.51, 176.1 152.73, 178.65 217.25 M176.94 0.56 C179.31 75.68, 179.28 152.47, 177.72 218 M178.78 216.59 C107.27 219.65, 36.46 217.65, 1.49 217.57 M176.37 217.84 C137.77 217.45, 99.17 217.44, 0.93 216.94 M-0.32 216.45 C0.7 155, -1.46 88.26, -1.32 0.15 M-0.5 216.85 C0.65 145.03, 0.52 73.04, -0.36 -0.66" stroke="#000000" stroke-width="1" fill="none"></path></g><g transform="translate(510.93423203196176 1023.8819463251351) rotate(0 69.02392048446552 18.756500131648238)"><text x="0" y="26.51300026329647" font-family="Virgil, Segoe UI Emoji" font-size="30.01040021063718px" fill="#000000" text-anchor="start" style="white-space: pre;" direction="ltr">Container</text></g><g stroke-linecap="round"><g transform="translate(528.0293653965862 1075.9840928128474) rotate(0 -0.3800517129153036 61.28614240907842)"><path d="M-1.17 0.96 C-1.17 21.44, 0.03 102.13, 0.41 122.15 M0.41 0.42 C0.25 20.62, -0.41 100.06, -0.32 120.34" stroke="#000000" stroke-width="1" fill="none"></path></g><g transform="translate(528.0293653965862 1075.9840928128474) rotate(0 -0.3800517129153036 61.28614240907842)"><path d="M-8.9 92.8 C-6.26 103.5, -4.67 111.32, -0.33 118.71 M-10.51 91.19 C-5.97 103.33, -3.66 113.13, -0.48 121.16" stroke="#000000" stroke-width="1" fill="none"></path></g><g transform="translate(528.0293653965862 1075.9840928128474) rotate(0 -0.3800517129153036 61.28614240907842)"><path d="M11.63 92.87 C7.4 103.34, 2.13 111.14, -0.33 118.71 M10.01 91.25 C6.97 103.18, 1.7 112.95, -0.48 121.16" stroke="#000000" stroke-width="1" fill="none"></path></g></g><g stroke-linecap="round" transform="translate(704.5013133905727 1008.1264862145504) rotate(0 88.53068062137959 108.78770076355977)"><path d="M-1.86 1.61 C35.69 1.13, 73.93 0.48, 176.07 1.86 M-0.69 0.82 C47.48 -0.08, 92.73 0.67, 177.04 -0.99 M176.66 -1.11 C177.67 58.79, 177.66 118.79, 178.73 217.21 M176.64 -0.53 C178.25 82.38, 178.06 165.42, 176.7 218.41 M178.43 219.47 C119.04 216.2, 65.86 215.04, 1.95 219.26 M177.07 217.54 C137.22 216.74, 97.86 218.06, -0.84 217.64 M0.17 217.59 C-0.11 146.16, 1.71 71.38, -0.54 -0.74 M-0.59 218.39 C0 150.79, -0.62 83.03, -0.5 0.37" stroke="#000000" stroke-width="1" fill="none"></path></g><g transform="translate(734.5117136012109 1027.6332463514668) rotate(0 69.02392048446552 18.756500131648238)"><text x="0" y="26.51300026329647" font-family="Virgil, Segoe UI Emoji" font-size="30.01040021063718px" fill="#000000" text-anchor="start" style="white-space: pre;" direction="ltr">Container</text></g><g stroke-linecap="round"><g transform="translate(752.1690953524767 1079.2388692140214) rotate(0 0.5779005044761334 60.53799574934658)"><path d="M0.97 -0.66 C1.07 19.81, 1.17 101.47, 1.13 121.74 M0.02 1.6 C0.02 21.79, 0.72 99.66, 0.78 119.72" stroke="#000000" stroke-width="1" fill="none"></path></g><g transform="translate(752.1690953524767 1079.2388692140214) rotate(0 0.5779005044761334 60.53799574934658)"><path d="M-10.76 93.48 C-6.01 102.37, -3.76 112.64, 0.05 118.96 M-8.86 91.28 C-7.51 99.99, -3.9 106.62, 0.48 119.31" stroke="#000000" stroke-width="1" fill="none"></path></g><g transform="translate(752.1690953524767 1079.2388692140214) rotate(0 0.5779005044761334 60.53799574934658)"><path d="M9.76 93.36 C7.48 102.46, 2.7 112.77, 0.05 118.96 M11.66 91.15 C7.13 100.07, 4.87 106.74, 0.48 119.31" stroke="#000000" stroke-width="1" fill="none"></path></g></g><g stroke-linecap="round" transform="translate(931.0798349808852 1009.6270062250817) rotate(0 88.53068062137959 108.78770076355977)"><path d="M-1.98 -0.62 C38.47 -0.32, 78.66 0.2, 175.7 1.87 M-0.87 -0.58 C53.7 2.19, 107.43 2.24, 177.05 0.56 M177.62 -1.56 C177.5 49.39, 177.27 96.38, 177.89 217.08 M177.69 0.81 C178.21 69.81, 179.4 138, 177 218.25 M178.18 217.5 C130.13 217.95, 85.56 217.71, 1.13 218.86 M177.85 218.22 C118.06 218.74, 58.51 217.33, 0.02 218.18 M-1.11 217.03 C-1.55 131.6, -2.55 42.29, -1.14 -0.23 M0.65 217.18 C0.59 162, 0.98 105.02, 0.65 0.27" stroke="#000000" stroke-width="1" fill="none"></path></g><g transform="translate(961.0902351915174 1029.1337663619934) rotate(0 69.02392048446552 18.756500131648238)"><text x="0" y="26.51300026329647" font-family="Virgil, Segoe UI Emoji" font-size="30.01040021063718px" fill="#000000" text-anchor="start" style="white-space: pre;" direction="ltr">Container</text></g><g stroke-linecap="round"><g transform="translate(978.4270499328145 1080.3359255610649) rotate(0 0.41125517718489846 60.629718320749305)"><path d="M-0.37 -0.51 C-0.41 19.94, -0.04 101.34, 0.09 121.55 M1.63 -1.82 C1.42 18.94, -0.51 102.51, -0.81 123.08" stroke="#000000" stroke-width="1" fill="none"></path></g><g transform="translate(978.4270499328145 1080.3359255610649) rotate(0 0.41125517718489846 60.629718320749305)"><path d="M-11.38 94.85 C-7.63 104.66, -5.82 115.13, -0.79 123.33 M-10.11 95.64 C-7.68 102.25, -6.33 108.34, -1.61 123.9" stroke="#000000" stroke-width="1" fill="none"></path></g><g transform="translate(978.4270499328145 1080.3359255610649) rotate(0 0.41125517718489846 60.629718320749305)"><path d="M9.14 95.25 C6.19 104.86, 1.3 115.2, -0.79 123.33 M10.41 96.04 C8.13 102.44, 4.78 108.44, -1.61 123.9" stroke="#000000" stroke-width="1" fill="none"></path></g></g><g stroke-linecap="round" transform="translate(1160.6593965922539 1014.1285662566738) rotate(0 88.53068062137959 108.78770076355977)"><path d="M-1.55 -1.34 C43.2 1.17, 86.36 0.75, 175.42 1.54 M0.33 0.47 C44.42 -0.5, 89.17 -1.13, 177.1 0.9 M176.25 -0.26 C177.04 50.45, 177.68 102.2, 177.39 216.69 M177.82 0.55 C177.79 73.01, 176.73 144.27, 177.86 217.53 M175.92 216.48 C114.04 218.89, 51.79 219.5, 0.98 218.31 M177.37 218.57 C132.03 217.94, 87.76 217.61, -0.84 217.76 M-1.06 215.9 C1.29 135.05, 0.38 51.12, -1.51 -0.67 M0.43 217.82 C-1.19 144.09, -0.27 69.35, 0.26 0.05" stroke="#000000" stroke-width="1" fill="none"></path></g><g transform="translate(1190.6697968028934 1033.6353263935907) rotate(0 69.02392048446552 18.756500131648238)"><text x="0" y="26.51300026329647" font-family="Virgil, Segoe UI Emoji" font-size="30.01040021063718px" fill="#000000" text-anchor="start" style="white-space: pre;" direction="ltr">Container</text></g><g stroke-linecap="round"><g transform="translate(1207.9641502255838 1085.4740062040619) rotate(0 0.08770318798724475 61.1495704338771)"><path d="M-0.8 0.52 C-0.68 21.1, 0.23 102.55, 0.38 122.56 M0.98 -0.26 C1.01 20.09, -0.11 100.7, -0.36 120.96" stroke="#000000" stroke-width="1" fill="none"></path></g><g transform="translate(1207.9641502255838 1085.4740062040619) rotate(0 0.08770318798724475 61.1495704338771)"><path d="M-9.39 93.28 C-6.11 100.59, -6.77 109.56, -1.28 119.35 M-10.83 93.42 C-7.3 103.29, -2.75 114.59, -0.99 120.41" stroke="#000000" stroke-width="1" fill="none"></path></g><g transform="translate(1207.9641502255838 1085.4740062040619) rotate(0 0.08770318798724475 61.1495704338771)"><path d="M11.13 93.55 C8.86 100.65, 2.66 109.55, -1.28 119.35 M9.69 93.69 C5.58 103.55, 2.49 114.75, -0.99 120.41" stroke="#000000" stroke-width="1" fill="none"></path></g></g><g stroke-linecap="round" transform="translate(334.87611054095987 332.5067730569267) rotate(0 451.927668821839 166.73059626436793)"><path d="M0.1 0.2 C192.01 -3.37, 383.53 -3.03, 903.37 -0.23 M0.19 0.35 C289.68 -0.14, 579.12 -0.52, 903.61 0.06 M902.64 0.54 C904.13 89.72, 905.66 176.96, 905.15 333.68 M903.58 0.58 C906.06 84.47, 904.78 168.79, 903.71 332.99 M903.64 333.69 C567.98 335.14, 231.87 334.5, -0.71 333.68 M903.94 333.54 C550.35 335.69, 196.91 335.87, 0.25 333.17 M-0.24 332.19 C0.16 228.26, 1.08 124, -0.2 1.16 M-0.66 333.58 C1.54 219.34, 1.22 106.41, 0.44 0.46" stroke="#000000" stroke-width="1" fill="none"></path></g><g transform="translate(361.75915571975645 368.58298394453914) rotate(0 83.99210488505759 15.67016882183907)"><text x="0" y="22.340337643678165" font-family="Virgil, Segoe UI Emoji" font-size="25.072270114942526px" fill="#000000" text-anchor="start" style="white-space: pre;" direction="ltr">Intro-content</text></g><g stroke-linecap="round" transform="translate(390.3136855728867 431.26365923189223) rotate(0 158.5821084770115 102.16950071839074)"><path d="M-0.66 -0.36 C75.77 0.08, 148.36 -0.4, 318.16 1.25 M0.06 0.02 C87.96 1.1, 176.78 1.1, 317.49 0.59 M317.95 -1.47 C317.66 63.49, 316.48 125.39, 318.49 205.44 M317.14 0.07 C319.48 45.92, 319.31 89.81, 316.44 205.13 M318.38 203.18 C222.04 205.93, 125.98 206.7, 1.16 204.35 M316.68 203.66 C243.87 202.87, 170.59 202.45, 0.16 204.15 M-0.98 206.02 C1.58 158.62, 0.53 114.64, 1.31 0.06 M0.57 204.53 C-0.33 132.44, -0.14 59.57, -0.85 -0.38" stroke="#000000" stroke-width="1" fill="none"></path></g><g stroke-linecap="round" transform="translate(806.5133694809347 430.0100457261444) rotate(0 173.7038213900861 105.30353448275844)"><path d="M0.97 -0.45 C86.57 1.12, 175.71 2.64, 348.7 1.18 M-0.06 0.19 C82.65 0.93, 165.37 0.47, 347.48 0.08 M347.02 0.12 C349.14 65.66, 346.91 129.19, 349.15 210.67 M346.89 0.54 C348.14 64.92, 346.82 130.28, 346.79 210.16 M347.15 210.48 C219.8 213.55, 92.51 211.51, 0.6 211.33 M347.38 210.38 C273.87 209.49, 201.73 210.06, -0.01 210.91 M-0.78 209.21 C3.14 154.7, 2.58 100.08, -0.42 -0.46 M-0.76 211.07 C0.89 132.63, 2.41 54.59, -0.62 0.82" stroke="#000000" stroke-width="1" fill="none"></path></g><g stroke-linecap="round" transform="translate(239.1157982926884 115.80999932069858) rotate(0 475.14051355206857 47.58202567760338)"><path d="M0.26 -0.21 C227.18 -3.5, 455.59 -3.34, 949.73 0.74 M-0.1 0.03 C216 3.35, 431.7 3.02, 949.94 -0.15 M952.17 -1.44 C949.91 30.28, 950.45 59.45, 948.77 93.72 M950.05 0.94 C950.1 24.67, 950.19 50.66, 951.06 96.08 M949.72 94.55 C617.56 98.14, 283.73 98.42, 0.57 95.38 M950 94.84 C584.44 93.05, 218.12 92.61, -0.14 94.91 M0.65 94.97 C0.92 71.37, -2.32 47.12, 0.6 -0.14 M-0.08 94.33 C0.51 59.05, 0.31 22.28, 0.42 0.1" stroke="#000000" stroke-width="1" fill="none"></path></g><g transform="translate(267.6650136992507 115.80999932069858) rotate(0 45.54279600570612 16.993580599144025)"><text x="0" y="23.987161198288156" font-family="Virgil, Segoe UI Emoji" font-size="27.18972895863054px" fill="#000000" text-anchor="start" style="white-space: pre;" direction="ltr">Header</text></g><g stroke-linecap="round"><g transform="translate(399.234683859395 130.24980456298363) rotate(0 153.76197297347625 0.29490623751905787)"><path d="M0.41 0.04 C51.86 0.38, 256.88 1.38, 308.36 1.58 M-0.84 -0.99 C50.47 -0.99, 255.66 -1.01, 307.28 -0.43" stroke="#000000" stroke-width="1" fill="none"></path></g><g transform="translate(399.234683859395 130.24980456298363) rotate(0 153.76197297347625 0.29490623751905787)"><path d="M279.1 9.29 C287.04 8.03, 294.09 5.94, 308.46 -0.48 M279.96 9.26 C288.15 6.21, 298.52 3.58, 307.44 0.51" stroke="#000000" stroke-width="1" fill="none"></path></g><g transform="translate(399.234683859395 130.24980456298363) rotate(0 153.76197297347625 0.29490623751905787)"><path d="M279.2 -11.23 C287.03 -6.98, 294.05 -3.54, 308.46 -0.48 M280.06 -11.26 C288.27 -7.46, 298.62 -3.24, 307.44 0.51" stroke="#000000" stroke-width="1" fill="none"></path></g></g><g stroke-linecap="round" transform="translate(266.30552725131906 160.67305210244035) rotate(0 211.40014265335242 18.35306704707557)"><path d="M-0.25 1.01 C115.05 -0.55, 228.36 -0.76, 423.74 -0.85 M0.24 -0.17 C102.1 -0.87, 203.79 -0.92, 422.38 0.24 M424.78 0.27 C421.93 7.78, 421.71 17.9, 423.11 36.54 M422.4 -0.23 C422.28 11.8, 421.85 20.68, 423.07 36.46 M422.84 35.96 C337.65 39.35, 254.55 38.41, 0.97 37.45 M423.05 36.32 C295.49 37.28, 168.36 37.02, -0.36 36.94 M0.57 35.26 C-0.52 24.48, 0.58 8.73, 1.77 0.81 M0.37 37.03 C0.15 25.18, -0.36 14.36, -0.96 0.21" stroke="#000000" stroke-width="1" fill="none"></path></g><g stroke-linecap="round" transform="translate(728.5309195480381 162.0325385503695) rotate(0 223.6355206847361 19.712553495007114)"><path d="M0.41 -0.51 C176.64 -0.58, 354.5 -0.37, 447.72 0.94 M0.26 0.34 C95.52 -1.72, 192.24 -1.66, 446.95 -0.1 M445.6 0.63 C447.35 9.95, 448.46 22.93, 448.69 39.27 M448.15 0.13 C446.37 14.09, 447.05 27.71, 448.15 38.84 M446.64 38.89 C294.27 41.13, 142.58 40.36, -0.95 40.08 M447.03 39.55 C316.76 41.13, 186.08 41.65, 0.07 39.52 M1.78 40.58 C-0.07 25.28, 1.72 10.22, -1.17 -1.67 M0.38 38.68 C-0.61 30.65, -1.08 22.13, 0.68 -0.41" stroke="#000000" stroke-width="1" fill="none"></path></g><g transform="translate(304.37114779340186 167.47048434209705) rotate(0 30.58844507845936 16.993580599144025)"><text x="0" y="23.987161198288156" font-family="Virgil, Segoe UI Emoji" font-size="27.189728958630536px" fill="#000000" text-anchor="start" style="white-space: pre;" direction="ltr">Logo</text></g><g transform="translate(772.0344858818471 171.5489436858918) rotate(0 31.947931526390903 16.993580599144025)"><text x="0" y="23.987161198288156" font-family="Virgil, Segoe UI Emoji" font-size="27.189728958630557px" fill="#000000" text-anchor="start" style="white-space: pre;" direction="ltr">Links</text></g><g stroke-linecap="round"><g transform="translate(418.8863057137668 456.6397948883596) rotate(0 0.8801293459499107 77.68799308236066)"><path d="M-0.03 0.06 C0.6 25.98, 2.73 130.56, 3.26 156.32 M-1.5 -0.95 C-0.92 24.57, 1.99 128.61, 2.69 154.7" stroke="#000000" stroke-width="1" fill="none"></path></g><g transform="translate(418.8863057137668 456.6397948883596) rotate(0 0.8801293459499107 77.68799308236066)"><path d="M-8.23 128 C-3.74 135.02, -3.74 139.4, 4.68 155.34 M-9.29 127.43 C-3.17 137.91, -0.14 147.95, 2.9 154.57" stroke="#000000" stroke-width="1" fill="none"></path></g><g transform="translate(418.8863057137668 456.6397948883596) rotate(0 0.8801293459499107 77.68799308236066)"><path d="M12.28 127.43 C11.5 134.59, 6.23 139.12, 4.68 155.34 M11.22 126.87 C9.44 137.65, 4.58 147.9, 2.9 154.57" stroke="#000000" stroke-width="1" fill="none"></path></g></g><g transform="translate(439.2046122970253 447.5606348066017) rotate(0 117.21286278735624 15.67016882183907)"><text x="0" y="22.340337643678165" font-family="Virgil, Segoe UI Emoji" font-size="25.072270114942505px" fill="#000000" text-anchor="start" style="white-space: pre;" direction="ltr">Intro-content-text</text></g><g transform="translate(807.509544498897 439.8598661284443) rotate(0 119.8935809536639 15.530256600215466)"><text x="0" y="22.06051320043102" font-family="Virgil, Segoe UI Emoji" font-size="24.84841056034479px" fill="#000000" text-anchor="start" style="white-space: pre;" direction="ltr">Intro-content-image</text></g><g stroke-linecap="round" transform="translate(334.6882604679804 1513.9119708994708) rotate(0 563.0203703703702 123.50277777777772)"><path d="M-0.66 -0.11 C297.65 2.66, 593.83 3.67, 1125.78 0.14 M-0.07 0.09 C364.76 -4.17, 729.53 -4.12, 1126.13 0.02 M1125.41 -0.24 C1125.44 60.46, 1125.96 120.77, 1126.16 248.47 M1126.49 0.79 C1126.36 65.45, 1127.32 130.03, 1126.09 246.43 M1126.34 247.43 C874.42 250.02, 623.88 249.28, -0.12 247.43 M1125.78 247.12 C807.45 244.16, 489.28 244.26, -0.17 246.66 M-1.35 245.48 C1.26 160.39, 0.12 71.12, -0.83 0.21 M0.52 246.25 C-0.84 184.42, -0.06 122.44, -0.26 0.39" stroke="#000000" stroke-width="1" fill="none"></path></g><g stroke-linecap="round"><g transform="translate(369.4258157395908 1373.8050739140267) rotate(0 -2.917575452605263 44.595234700451186)"><path d="M-0.07 -0.8 C-0.79 13.96, -4.09 73.64, -4.8 88.72 M-1.57 1.4 C-2.41 16.3, -5.22 75.63, -5.76 89.99" stroke="#000000" stroke-width="1" fill="none"></path></g><g transform="translate(369.4258157395908 1373.8050739140267) rotate(0 -2.917575452605263 44.595234700451186)"><path d="M-16.12 61.32 C-13.26 69.61, -9.34 77.65, -6.8 90.01 M-14.91 61.99 C-11.04 70.3, -9.47 79.46, -5.11 90.18" stroke="#000000" stroke-width="1" fill="none"></path></g><g transform="translate(369.4258157395908 1373.8050739140267) rotate(0 -2.917575452605263 44.595234700451186)"><path d="M4.38 62.21 C1.91 70.25, 0.49 78.07, -6.8 90.01 M5.6 62.88 C3.02 70.93, -1.86 79.8, -5.11 90.18" stroke="#000000" stroke-width="1" fill="none"></path></g></g><g transform="translate(363.2438160235363 1527.594841269841) rotate(0 43.9041666666667 13.385416666666686)"><text x="0" y="18.770833333333346" font-family="Virgil, Segoe UI Emoji" font-size="21.41666666666666px" fill="#000000" text-anchor="start" style="white-space: pre;" direction="ltr">Register</text></g><g stroke-linecap="round"><g transform="translate(583.3124924300164 378.40395257427167) rotate(0 258.8447894744134 -1.1665524324373564)"><path d="M0.82 -0.84 C86.8 -1.25, 429.71 -3.45, 515.63 -3.67 M-0.21 1.34 C86.17 1.13, 431.94 -2.4, 517.9 -2.74" stroke="#000000" stroke-width="1" fill="none"></path></g><g transform="translate(583.3124924300164 378.40395257427167) rotate(0 258.8447894744134 -1.1665524324373564)"><path d="M488.39 6.3 C495.81 4.37, 506.15 0.23, 517.11 -3.37 M490.52 7.49 C497.02 4.62, 502.97 2.23, 517.46 -3.53" stroke="#000000" stroke-width="1" fill="none"></path></g><g transform="translate(583.3124924300164 378.40395257427167) rotate(0 258.8447894744134 -1.1665524324373564)"><path d="M488.24 -14.22 C495.5 -10.41, 505.88 -8.81, 517.11 -3.37 M490.36 -13.03 C496.82 -11.18, 502.81 -8.84, 517.46 -3.53" stroke="#000000" stroke-width="1" fill="none"></path></g></g><g stroke-linecap="round"><g transform="translate(373.15600241412835 815.028579101458) rotate(0 1.2970097457369434 210.04493646671375)"><path d="M-0.67 -0.59 C0.02 69.41, 2.73 350.67, 3.26 420.68 M1.19 1.71 C1.89 71.32, 2.77 349.21, 2.9 419.04" stroke="#000000" stroke-width="1" fill="none"></path></g><g transform="translate(373.15600241412835 815.028579101458) rotate(0 1.2970097457369434 210.04493646671375)"><path d="M-8.42 392.74 C-3.4 397.95, -3.03 404.59, 2.15 418.15 M-7.84 391.23 C-4.09 399.43, -1.93 407.39, 2.02 419.87" stroke="#000000" stroke-width="1" fill="none"></path></g><g transform="translate(373.15600241412835 815.028579101458) rotate(0 1.2970097457369434 210.04493646671375)"><path d="M12.1 392.69 C12.46 397.79, 8.17 404.45, 2.15 418.15 M12.69 391.18 C10.39 399.34, 6.52 407.32, 2.02 419.87" stroke="#000000" stroke-width="1" fill="none"></path></g></g><g stroke-linecap="round" transform="translate(435.18511893358846 896.3470899470894) rotate(0 460.4583333333335 201.31666666666672)"><path d="M-0.5 0.09 C185.87 1.88, 370.72 2.23, 920.51 -0.56 M0.23 0.03 C222.91 -3.39, 445.62 -3.39, 920.88 0.33 M921.09 -0.14 C919.69 161.28, 920.18 320.43, 921.34 401.59 M921.38 -0.35 C922.31 109.9, 922.93 220.4, 920.68 402.09 M920.82 401.85 C614.79 399.77, 310.56 399.07, 0.78 403 M921.26 402.43 C690.97 400.27, 460.91 399.93, 0.33 402.94 M0.19 402.15 C2.65 308.2, 0.9 213.78, -0.98 -0.3 M0.52 403.06 C-0.78 255.07, -0.96 107.44, -0.27 -0.39" stroke="#000000" stroke-width="1" fill="none"></path></g><g transform="translate(503.71845226692176 929.5429232804228) rotate(0 85.66666666666663 13.385416666666686)"><text x="0" y="18.770833333333346" font-family="Virgil, Segoe UI Emoji" font-size="21.41666666666666px" fill="#000000" text-anchor="start" style="white-space: pre;" direction="ltr">Showcase-items </text></g><g stroke-linecap="round"><g transform="translate(739.3787568233531 952.1350787147672) rotate(0 176.0242266952356 -6.343360130758924)"><path d="M-0.27 -0.75 C57.9 -2.74, 291.43 -10.13, 350.17 -12.32 M1.79 1.48 C60.22 -0.85, 293.98 -11.74, 352.32 -14.16" stroke="#000000" stroke-width="1" fill="none"></path></g><g transform="translate(739.3787568233531 952.1350787147672) rotate(0 176.0242266952356 -6.343360130758924)"><path d="M323.37 -4.44 C336.44 -5.63, 344.78 -12.37, 353.49 -16.12 M324.89 -2.93 C331.51 -4.9, 338.75 -8.26, 351.68 -14.02" stroke="#000000" stroke-width="1" fill="none"></path></g><g transform="translate(739.3787568233531 952.1350787147672) rotate(0 176.0242266952356 -6.343360130758924)"><path d="M322.46 -24.94 C335.83 -18.05, 344.53 -16.72, 353.49 -16.12 M323.98 -23.43 C330.72 -20.45, 338.19 -18.84, 351.68 -14.02" stroke="#000000" stroke-width="1" fill="none"></path></g></g><g stroke-linecap="round" transform="translate(383.78511893358836 1579.5387566137558) rotate(0 510.7875 76.02916666666665)"><path d="M0.76 -0.79 C239.81 2.27, 479.05 2.45, 1022.14 0.09 M-0.39 -0.19 C393.74 1.27, 787.66 1.39, 1021.39 -0.1 M1019.8 0.89 C1024.54 38.53, 1024.31 73.64, 1019.72 152.17 M1022.4 -0.03 C1022.04 58.31, 1020.38 116.78, 1021.41 152.76 M1021.6 151.71 C688.14 153.07, 354.6 153.27, -0.65 152.57 M1021.86 152.39 C731.23 149.13, 440.99 149.18, -0.35 151.95 M-0.1 150.52 C1.58 119.17, 0.66 87.67, -0.28 1.21 M-0.88 151.91 C-0.07 92.84, -0.72 35.94, -0.93 -0.09" stroke="#000000" stroke-width="1" fill="none"></path></g><g transform="translate(415.91011893358836 1591.3179232804223) rotate(0 80.3125 13.385416666666686)"><text x="0" y="18.770833333333346" font-family="Virgil, Segoe UI Emoji" font-size="21.41666666666666px" fill="#000000" text-anchor="start" style="white-space: pre;" direction="ltr">Register-window</text></g><g stroke-linecap="round" transform="translate(428.7601189335885 1645.9304232804227) rotate(0 205.60000000000002 34.26666666666665)"><path d="M0.31 -0.65 C110.81 -1.26, 220.17 -0.56, 411.25 0.45 M-0.29 -0.24 C159.58 -1.83, 320.11 -1.24, 410.98 0.53 M412.03 1.59 C412.23 16.59, 410.72 38.46, 411.83 66.67 M410.44 0.39 C410.24 20.62, 409.91 42.06, 412.12 68.83 M412.07 69.58 C304.02 69.09, 196.19 69.36, -0.97 69.27 M410.77 68.91 C288.9 67.59, 166.04 66.86, -0.25 68.57 M-0.6 66.92 C0.72 51.95, -2.31 37.08, 0.56 -1.18 M-0.7 68.77 C0.17 47.92, -0.55 29.86, -0.34 0.33" stroke="#000000" stroke-width="1" fill="none"></path></g><g stroke-linecap="round"><g transform="translate(645.0632208016893 1598.8036188203369) rotate(0 99.13014857023956 4.9735067199698335)"><path d="M-0.84 0.28 C32.41 2.05, 165.92 7.72, 199.1 9.61 M0.92 -0.62 C34.04 1.35, 164.83 8.85, 198.11 10.57" stroke="#000000" stroke-width="1" fill="none"></path></g><g transform="translate(645.0632208016893 1598.8036188203369) rotate(0 99.13014857023956 4.9735067199698335)"><path d="M169.87 19.14 C175.27 15.57, 186.18 14.16, 198.78 9.8 M168.96 19.84 C178.04 16.62, 189.3 12.79, 198.95 10.1" stroke="#000000" stroke-width="1" fill="none"></path></g><g transform="translate(645.0632208016893 1598.8036188203369) rotate(0 99.13014857023956 4.9735067199698335)"><path d="M171 -1.35 C175.92 0.52, 186.54 4.55, 198.78 9.8 M170.09 -0.65 C178.8 3.01, 189.69 6.05, 198.95 10.1" stroke="#000000" stroke-width="1" fill="none"></path></g></g><g stroke-linecap="round"><g transform="translate(452.39013457149395 1661.0256900178938) rotate(0 -0.10747099490373557 25.93617551886942)"><path d="M0.15 -0.99 C0.18 7.6, 1.04 42.81, 1.01 51.35 M-1.23 1.1 C-1.34 9.92, 0.52 44.55, 0.6 52.86" stroke="#000000" stroke-width="1" fill="none"></path></g><g transform="translate(452.39013457149395 1661.0256900178938) rotate(0 -0.10747099490373557 25.93617551886942)"><path d="M-10.66 30.71 C-5.6 37.8, -3.85 46.45, 0.94 51.37 M-8.44 29.4 C-6.26 38.16, -2.99 45.72, 1.41 52.84" stroke="#000000" stroke-width="1" fill="none"></path></g><g transform="translate(452.39013457149395 1661.0256900178938) rotate(0 -0.10747099490373557 25.93617551886942)"><path d="M6.91 30.11 C5.5 37.45, 0.79 46.31, 0.94 51.37 M9.13 28.8 C4.97 37.82, 1.89 45.59, 1.41 52.84" stroke="#000000" stroke-width="1" fill="none"></path></g></g><g transform="translate(505.8601189335875 1664.1345899470894) rotate(0 108.6895833333333 13.385416666666686)"><text x="0" y="18.770833333333346" font-family="Virgil, Segoe UI Emoji" font-size="21.41666666666666px" fill="#000000" text-anchor="start" style="white-space: pre;" direction="ltr">Register-window-text</text></g><g stroke-linecap="round" transform="translate(925.6267856002555 1648.0720899470894) rotate(0 220.5916666666667 28.912499999999994)"><path d="M-0.06 0.8 C101.96 1.04, 203.24 0.21, 441.42 -0.07 M0.16 0.39 C102.82 -2.25, 206.16 -2.2, 441.5 0.29 M442.53 -0.73 C441.04 15.13, 440.32 32.09, 439.85 57.64 M440.5 0.7 C441 16.63, 441.5 33.28, 441.18 58.31 M441.61 56.87 C352.92 57.43, 263.86 57.43, -0.56 56.9 M440.92 57.57 C298.76 59.33, 155.58 59.78, -0.34 58.04 M-1.25 56.99 C0.72 43.12, -0.67 32.82, -0.96 -0.8 M-0.85 57.15 C-0.52 39.93, 0.55 19.66, -0.05 0.13" stroke="#000000" stroke-width="1" fill="none"></path></g><g transform="translate(1034.851785600255 1668.4179232804227) rotate(0 130.10625000000005 13.385416666666671)"><text x="0" y="18.770833333333346" font-family="Virgil, Segoe UI Emoji" font-size="21.41666666666666px" fill="#000000" text-anchor="start" style="white-space: pre;" direction="ltr">Register-sign-up (button)</text></g><g stroke-linecap="round"><g transform="translate(118.91269841269786 230.65079365079305) rotate(0 1.007718047150405 792.7690874714684)"><path d="M0.18 -0.06 C0.9 264.34, 2.87 1320.97, 3.19 1585.44 M-1.18 -1.14 C-0.42 263.51, 2.44 1322.36, 2.87 1586.68" stroke="#000000" stroke-width="1" fill="none"></path></g><g transform="translate(118.91269841269786 230.65079365079305) rotate(0 1.007718047150405 792.7690874714684)"><path d="M-7.56 1560.5 C-6.48 1564.55, -2.15 1571.75, 3.3 1586.7 M-8.02 1558.02 C-4.13 1568.55, 0.43 1580.1, 3.01 1586.04" stroke="#000000" stroke-width="1" fill="none"></path></g><g transform="translate(118.91269841269786 230.65079365079305) rotate(0 1.007718047150405 792.7690874714684)"><path d="M12.96 1560.46 C9.79 1564.54, 9.87 1571.76, 3.3 1586.7 M12.5 1557.97 C8.84 1568.71, 5.87 1580.28, 3.01 1586.04" stroke="#000000" stroke-width="1" fill="none"></path></g></g></svg>